<svg id="Layer_1" data-name="Layer 1" xmlns="http://www.w3.org/2000/svg" viewBox="0 0 651.1 87.84"><defs><style>.cls-1{fill:#fff;}</style></defs><title>Artboard 2 copy</title><path class="cls-1" d="M45.57,17.93V0h-26V10.38a.39.39,0,0,1-.39.39H1a1,1,0,0,0-1,1v59.9H65.11V19.66a.81.81,0,0,0-.81-.81H46.49A.92.92,0,0,1,45.57,17.93Zm-22,4.29V14.14H41.53v8.08Zm17.94,2.69V47H23.59V24.91ZM23.59,49.72H41.53V57.8H23.59ZM41.53,5.1v6.34H23.59V5.1A1.06,1.06,0,0,1,24.65,4H40.47A1.06,1.06,0,0,1,41.53,5.1ZM19.28,35.38H4V27.31H19.28Zm0-19.45v8.68H4V15.94a1.13,1.13,0,0,1,1.13-1.13h13A1.13,1.13,0,0,1,19.28,15.94ZM4,66.55V38.08H19.28V66.55a1.13,1.13,0,0,1-1.13,1.13h-13A1.13,1.13,0,0,1,4,66.55Zm19.55.07V60.49H41.53v6.13a1.06,1.06,0,0,1-1.06,1.06H24.65A1.06,1.06,0,0,1,23.59,66.62ZM59.9,67.68H47a1.17,1.17,0,0,1-1.17-1.17V24.06A1.17,1.17,0,0,1,47,22.89H59.9a1.17,1.17,0,0,1,1.17,1.17V66.51A1.17,1.17,0,0,1,59.9,67.68Z"/><path class="cls-1" d="M53.45,54.66a1.35,1.35,0,0,0,1.35-1.35V30.59a1.35,1.35,0,0,0-2.69,0V53.31A1.35,1.35,0,0,0,53.45,54.66Z"/><path class="cls-1" d="M98.48,46.11l-6.73,7V71.72H84.48V16.64h7.26V43.88l24.48-27.24H125L103.32,41,126.7,71.72H118Z"/><path class="cls-1" d="M137.71,30.79l.23,5.14A14.91,14.91,0,0,1,150.2,30q13,0,13.09,14.64v27h-7V44.64q0-4.43-2-6.54T148.08,36a10.1,10.1,0,0,0-6,1.82,12.33,12.33,0,0,0-4,4.77V71.72h-7V30.79Z"/><path class="cls-1" d="M172,50.88a24.18,24.18,0,0,1,2.36-10.82,17.64,17.64,0,0,1,6.58-7.41A17.92,17.92,0,0,1,190.56,30a17.26,17.26,0,0,1,13.52,5.79q5.16,5.79,5.16,15.4v.49A24.38,24.38,0,0,1,207,62.44a17.37,17.37,0,0,1-6.54,7.4,18.12,18.12,0,0,1-9.78,2.65,17.22,17.22,0,0,1-13.49-5.79Q172,60.9,172,51.37Zm7,.83q0,6.81,3.16,10.93a10.7,10.7,0,0,0,16.93-.06q3.14-4.18,3.14-11.71,0-6.73-3.2-10.91a10.16,10.16,0,0,0-8.49-4.18,10,10,0,0,0-8.36,4.12Q179,44,179,51.71Z"/><path class="cls-1" d="M254.26,62.08l7.87-31.29h7L257.22,71.72h-5.67l-9.95-31-9.68,31h-5.67L214.35,30.79h7l8.06,30.64,9.53-30.64h5.64Z"/><path class="cls-1" d="M283.85,71.72h-7V13.62h7Z"/><path class="cls-1" d="M312,72.48A17.88,17.88,0,0,1,298.49,67q-5.22-5.47-5.22-14.62V51.11a24.56,24.56,0,0,1,2.33-10.88,18.14,18.14,0,0,1,6.51-7.49A16.36,16.36,0,0,1,311.16,30q8,0,12.41,5.26T328,50.35v2.91H300.27A14.55,14.55,0,0,0,303.8,63a11.12,11.12,0,0,0,8.61,3.73,12.19,12.19,0,0,0,6.28-1.51,15.78,15.78,0,0,0,4.5-4l4.27,3.33Q322.32,72.48,312,72.48Zm-.87-36.7A9.33,9.33,0,0,0,304,38.87a15,15,0,0,0-3.56,8.64H321V47q-.3-5.33-2.87-8.27A8.79,8.79,0,0,0,311.16,35.78Z"/><path class="cls-1" d="M334.39,50.92q0-9.42,4.46-15.15A14.12,14.12,0,0,1,350.54,30q7.19,0,11.39,4.92V13.62h7V71.72H362.5l-.34-4.39q-4.2,5.15-11.69,5.15a14,14,0,0,1-11.59-5.83q-4.48-5.83-4.48-15.21Zm7,.79q0,7,2.88,10.89a9.29,9.29,0,0,0,7.94,3.93,10.21,10.21,0,0,0,9.72-6V41.76A10.29,10.29,0,0,0,352.28,36a9.34,9.34,0,0,0-8,4Q341.39,43.92,341.39,51.71Z"/><path class="cls-1" d="M378.12,50.92q0-9.57,4.43-15.23A14.16,14.16,0,0,1,394.27,30q7.49,0,11.69,5.3l.34-4.54h6.39V70.74q0,7.94-4.71,12.52t-12.65,4.58a21.05,21.05,0,0,1-8.66-1.89,14.91,14.91,0,0,1-6.47-5.18l3.63-4.2a13.68,13.68,0,0,0,11,5.56q5.11,0,8-2.87t2.86-8.1V67.64q-4.2,4.84-11.46,4.84a14,14,0,0,1-11.63-5.79Q378.12,60.9,378.12,50.92Zm7,.79q0,6.92,2.84,10.88a9.22,9.22,0,0,0,7.94,4,10.25,10.25,0,0,0,9.72-6V41.84A10.37,10.37,0,0,0,396,36a9.3,9.3,0,0,0-8,4Q385.16,43.92,385.16,51.71Z"/><path class="cls-1" d="M440.24,72.48A17.89,17.89,0,0,1,426.69,67q-5.22-5.47-5.22-14.62V51.11a24.57,24.57,0,0,1,2.33-10.88,18.14,18.14,0,0,1,6.51-7.49A16.36,16.36,0,0,1,439.37,30q8,0,12.41,5.26t4.43,15.06v2.91H428.47A14.55,14.55,0,0,0,432,63a11.12,11.12,0,0,0,8.61,3.73,12.19,12.19,0,0,0,6.28-1.51,15.79,15.79,0,0,0,4.5-4l4.28,3.33Q450.53,72.48,440.24,72.48Zm-.87-36.7a9.33,9.33,0,0,0-7.11,3.08,15,15,0,0,0-3.56,8.64h20.5V47q-.3-5.33-2.87-8.27A8.79,8.79,0,0,0,439.37,35.78Z"/><path class="cls-1" d="M504.77,49.44H491.84V71.72h-7.3V16.64h18.23q9.31,0,14.32,4.24t5,12.33a14.83,14.83,0,0,1-2.78,9,16.59,16.59,0,0,1-7.74,5.71l12.94,23.38v.45h-7.79ZM491.84,43.5H503q5.41,0,8.61-2.8a9.48,9.48,0,0,0,3.2-7.5q0-5.12-3-7.84T503,22.58H491.84Z"/><path class="cls-1" d="M548.17,72.48A17.89,17.89,0,0,1,534.62,67q-5.22-5.47-5.22-14.62V51.11a24.57,24.57,0,0,1,2.33-10.88,18.14,18.14,0,0,1,6.51-7.49A16.36,16.36,0,0,1,547.3,30q8,0,12.41,5.26t4.43,15.06v2.91H536.4A14.55,14.55,0,0,0,539.94,63a11.12,11.12,0,0,0,8.61,3.73,12.19,12.19,0,0,0,6.28-1.51,15.79,15.79,0,0,0,4.5-4l4.28,3.33Q558.45,72.48,548.17,72.48Zm-.87-36.7a9.33,9.33,0,0,0-7.11,3.08,15,15,0,0,0-3.56,8.64h20.5V47q-.3-5.33-2.87-8.27A8.79,8.79,0,0,0,547.3,35.78Z"/><path class="cls-1" d="M606.8,51.71q0,9.34-4.28,15.06a13.7,13.7,0,0,1-11.58,5.71q-7.45,0-11.73-4.73V87.46h-7V30.79h6.39l.34,4.54q4.27-5.3,11.88-5.3a14,14,0,0,1,11.67,5.56q4.29,5.56,4.29,15.47Zm-7-.79q0-6.92-3-10.93a9.51,9.51,0,0,0-8.1-4,10.29,10.29,0,0,0-9.53,5.64V61.17a10.31,10.31,0,0,0,9.61,5.6,9.46,9.46,0,0,0,8-4Q599.8,58.78,599.8,50.92Z"/><path class="cls-1" d="M613.84,50.88a24.18,24.18,0,0,1,2.36-10.82,17.64,17.64,0,0,1,6.58-7.41A17.91,17.91,0,0,1,632.41,30a17.26,17.26,0,0,1,13.52,5.79q5.16,5.79,5.16,15.4v.49a24.39,24.39,0,0,1-2.29,10.72,17.38,17.38,0,0,1-6.54,7.4,18.13,18.13,0,0,1-9.78,2.65A17.22,17.22,0,0,1,619,66.69q-5.16-5.79-5.16-15.32Zm7,.83q0,6.81,3.16,10.93A10.7,10.7,0,0,0,641,62.59q3.14-4.18,3.14-11.71,0-6.73-3.2-10.91a10.16,10.16,0,0,0-8.49-4.18,10.05,10.05,0,0,0-8.36,4.12Q620.87,44,620.87,51.71Z"/></svg>