<?xml version="1.0" standalone="no"?>
<!DOCTYPE svg PUBLIC "-//W3C//DTD SVG 20010904//EN"
 "http://www.w3.org/TR/2001/REC-SVG-20010904/DTD/svg10.dtd">
<svg version="1.0" xmlns="http://www.w3.org/2000/svg"
 width="700.000000pt" height="700.000000pt" viewBox="0 0 700.000000 700.000000"
 preserveAspectRatio="xMidYMid meet">
<metadata>
Created by potrace 1.11, written by Peter Selinger 2001-2013
</metadata>
<g transform="translate(0.000000,700.000000) scale(0.100000,-0.100000)"
fill="#000000" stroke="none">
<path d="M2336 6710 c-1 -3 -2 -211 -2 -463 1 -252 -2 -467 -6 -477 -7 -20
-22 -20 -837 -20 -503 0 -840 -4 -855 -10 -14 -5 -32 -20 -41 -34 -15 -23 -16
-249 -16 -2716 0 -1481 2 -2695 6 -2698 4 -4 1318 -7 2921 -7 2605 0 2914 1
2914 15 0 8 1 1059 1 2336 0 1481 -4 2330 -10 2347 -5 14 -20 29 -33 33 -13 4
-391 8 -841 9 l-819 0 -24 28 -24 28 0 815 c0 448 -3 815 -7 815 -25 5 -2325
3 -2327 -1z m1921 -368 c45 -25 47 -41 48 -354 l0 -298 -801 0 c-633 0 -803 3
-806 13 -2 6 -4 139 -3 293 1 308 4 326 58 349 41 17 1473 15 1504 -3z m48
-1257 l0 -360 -805 0 -805 0 -1 350 c0 193 1 355 3 361 3 8 233 11 806 10
l802 -1 0 -360z m-2043 282 c14 -10 31 -32 37 -49 7 -20 11 -168 11 -420 l0
-388 -687 2 -686 3 0 398 c1 355 3 400 18 423 33 51 32 51 678 50 564 -1 604
-2 629 -19z m3735 -719 c15 -7 36 -29 45 -48 17 -33 18 -147 18 -1948 0 -2102
4 -1964 -61 -1994 -50 -23 -1222 -21 -1257 2 -55 37 -52 -85 -52 1989 0 2024
-2 1952 44 1990 27 23 118 26 693 24 426 -1 548 -4 570 -15z m-2617 -1158 c0
-936 -1 -990 -17 -990 -156 -3 -658 1 -662 6 -3 3 -6 449 -6 990 l0 984 342 0
343 0 0 -990z m921 973 c1 -10 2 -454 3 -988 l1 -970 -235 -5 c-129 -3 -283
-4 -342 -2 l-108 3 0 990 0 989 340 0 c317 0 340 -1 341 -17z m-1998 -202 c4
0 7 -163 7 -361 l0 -360 -685 0 -685 0 -1 28 c-1 30 0 646 0 677 1 20 6 20
679 19 372 -1 680 -2 685 -3z m7 -2247 c0 -1420 4 -1331 -63 -1359 -25 -10
-158 -13 -640 -11 l-609 1 -29 33 c-21 23 -29 43 -30 70 -1 52 -1 2524 0 2539
1 9 163 12 686 12 l685 1 0 -1286z m1985 237 c7 -1 10 -127 10 -361 l0 -360
-805 0 -805 0 1 353 c1 193 2 357 3 362 1 7 272 10 794 9 435 -1 797 -2 802
-3z m10 -1239 c1 -163 -3 -286 -10 -305 -21 -66 5 -64 -795 -64 -804 0 -773
-3 -797 67 -8 24 -12 124 -12 306 l-1 272 807 -2 808 -1 0 -273z"/>
</g>
</svg>
